<svg id="Layer_1" xmlns="http://www.w3.org/2000/svg" viewBox="-429 231 100 100"><style>.st0{fill:#870F1E;}</style><path class="st0" d="M-379 331c-27.6 0-50-22.4-50-50 0-12.3 4.5-23.6 11.9-32.3-.6-.9-.9-2-.9-3.2 0-3.3 2.7-6 6-6 1.3 0 2.5.5 3.5 1.2 8.3-6.1 18.5-9.7 29.6-9.7 27.6 0 50 22.4 50 50s-22.5 50-50.1 50zm0-98c-10.5 0-20.2 3.4-28.2 9.1.6.9 1 2.1 1 3.3 0 3.3-2.7 6-6 6-1.4 0-2.6-.5-3.6-1.3-7 8.3-11.2 19.1-11.2 30.9 0 26.5 21.5 48 48 48s48-21.5 48-48-21.5-48-48-48zm.1 16.7c0 .5 0 .8-.2 1-.3.3-1.1.2-2 .2-2.5 0-3.8-.1-6.6-.1-2 0-4.3.1-6.6.1-.9 0-1.6 0-1.8-.4-.2-.4-.1-1.9-.1-2.5v-6.5c0-.5-.1-1 .1-1.2.1-.1.4-.3.6-.3h.1c.6-.1 1.7-.1 2 .3.2.3.1 1.2.1 1.8v3.9c0 .6-.1 1.6.1 1.8.2.4 2.4.3 3.3.2.2 0 .3 0 .5-.1.2 0 .4 0 .4-.1.3-.3.2-1.1.1-1.8-.1-1.7 0-2.4 0-4.1 0-.7-.1-1.5.2-1.8.3-.4 2-.5 2.4-.1.5.5.2 2.8.2 3.8v2s-.1 1.6.1 1.9c.1.1.3.1.4.2.6.2 2 .1 2.8.1.4 0 .8 0 .9-.2.2-.3.1-1 .1-1.9 0-1.5-.1-3.3 0-5v-.9c0-.2.2-.2.3-.2.3 0 .6-.1 1.2-.1.3 0 .6 0 .8.1.2.1.4.2.5.3.2.4.1 1.8.1 2.6 0 2.6.1 4.4 0 7zm-27.4 28.5c.9 0 1.4-.2 1.7.5.2.5.1 1.8-.2 2.1-.5.5-2.5.2-3.5.2h-7.5c-.8 0-3.1.2-3.4-.2-.2-.2-.1-1.4-.1-2 0-.1 0-.2.1-.3.1-.1.2-.1.3-.2.2-.1.8 0 1.2 0 .4 0 .8 0 1.2-.1l.2-.1c.1-.2.1-1.3.1-1.9.1-4.1 0-7.9 0-12.2 0-.6.1-1.7-.1-1.9-.4-.4-2.3.1-2.8-.4-.2-.2-.2-.6-.2-1.1 0-.3-.1-.7.1-.9l.1-.1.1-.1c.3-.4 2.1-.2 3.1-.2h10.1c.2 0 1-.1 1.2.1l.1.2c.2.6.2 2-.2 2.2-.3.2-.8.1-1.3.1-.4 0-1-.1-1.2.1-.4.3-.2 2.1-.2 3.4 0 3.6-.1 7.3.1 10.6 0 .6-.1 1.7.1 2-.1.2.4.2.9.2zm-4.3-16.2c-.3-.3-2-.1-2.3-.1-.2 0-.3 0-.4.1s-.1.2-.2.3V270c0 2.5 0 3.9.1 6.2 0 .9-.1 1.7.2 1.9.3.2 2.3.2 2.6-.1.2-.3.2-1.1.2-1.8V266c0-.9.2-3.6-.2-4zm14.5 6.8c0-1.2-.1-2.9.5-3.6.3-.4.9-.3 3.3-.3h2.5c.3 0 .7 0 .8-.1.3-.2.3-1.6.2-2.3-.1-.7-.2-.7-1-.7h-2.7c-1.2 0-3 .2-3.4-.2-.2-.2-.2-.6-.2-1.2v-.7s.2-.4.3-.4c.3-.2 1.1-.1 1.9-.1h12c.7 0 1.4-.1 2-.1.1 0 .4-.1.6.1.5.3.6 2.2.1 2.5-.4.3-1.2.1-1.7.1-1.6 0-2.7-.1-4.4 0-.7 0-.9 0-1 .7-.1.6-.1 2 .2 2.3.4.4 2.7.2 3.4.2h2.7c1.1 0 1 .5 1 1.9l.1 12.1c0 .8 0 1.8-.1 1.9-.1.2-.4.2-.8.2h-.5c-.6 0-.7 0-.9-.1-.1 0-.2-.1-.2-.2s-.1-.2-.1-.5v-2.5-8.6c0-.4 0-.8-.1-1.2-.1-.4-.5-.5-.9-.5h-.2c-.4 0-.8 0-.9.2-.3.3-.2 2.6-.2 3.3l.1 7.4c0 1.1 0 2.1-.1 2.3-.1.2-.4.2-1.3.2-.8 0-.9 0-1.1-.2s-.2-.9-.2-1.5v-9.9c0-.6.1-1.3-.1-1.5-.2-.3-1.8-.3-1.9 0s-.1.6-.1 3v8.5c0 .6.1 1.1-.2 1.4-.2.3-.7.2-1.2.2-.6 0-.9 0-1.1-.3s-.1-.8-.1-1.6v-4.9-3.4c0-2.1 0-2.7-.2-3-.1-.2-.4-.2-1.4-.2-.4 0-.5.1-.5.4v11.4c0 .4 0 .8-.1 1.2-.2.5-1.3.6-2.1.4-.1 0-.4-.1-.5-.2-.2-.3-.1-1.1-.1-1.9-.2-3.5-.1-6.4-.1-10z"/></svg>