<svg xmlns="http://www.w3.org/2000/svg" preserveAspectRatio="xMidYMid" width="100" height="100" viewBox="0 0 100 100"><defs><style>.cls-1 { fill: #151719; fill-rule: evenodd; }</style></defs><path d="M50 100C22.386 100 0 77.614 0 50c0-12.338 4.478-23.624 11.885-32.345-.593-.926-.948-2.02-.948-3.202 0-3.29 2.668-5.957 5.958-5.957 1.33 0 2.547.452 3.538 1.19C28.715 3.6 38.935 0 50 0c27.614 0 50 22.386 50 50s-22.386 50-50 50zm0-98c-10.523 0-20.247 3.395-28.158 9.137.637.948 1.01 2.088 1.01 3.316 0 3.29-2.667 5.957-5.957 5.957-1.38 0-2.635-.488-3.645-1.276C6.233 27.48 2 38.244 2 50c0 26.51 21.49 48 48 48s48-21.49 48-48S76.51 2 50 2zm.137 16.662c-.02.52-.045.843-.246 1.043-.292.295-1.078.247-1.963.247-2.495 0-3.79-.062-6.576-.062-2.04 0-4.338.062-6.573.062-.94 0-1.617-.012-1.844-.37-.243-.38-.12-1.918-.12-2.518V10.55c0-.5-.053-1.03.058-1.23.076-.13.41-.273.617-.305h.122c.637-.13 1.684-.124 1.966.305.212.326.123 1.16.123 1.845v3.933c0 .616-.11 1.58.06 1.842.25.39 2.36.297 3.256.247.202-.013.325-.025.493-.062.176-.04.353-.046.428-.123.283-.295.154-1.075.123-1.842-.072-1.72 0-2.384 0-4.057 0-.743-.074-1.525.186-1.842.31-.384 1.973-.486 2.395-.063.53.536.205 2.84.185 3.813-.007.444 0 1.33 0 2.024 0 .71-.106 1.602.124 1.906.074.1.272.142.428.185.584.154 2.03.104 2.828.062.425-.023.79-.04.92-.185.233-.26.123-1.03.123-1.904 0-1.546-.087-3.284 0-4.978l.035-.857c.008-.183.16-.23.324-.25.322-.04.567-.066 1.176-.06.308.003.567-.012.798.062.195.06.433.196.493.305.21.403.06 1.833.06 2.642 0 2.36.098 4.175 0 6.7zM22.672 47.174c.868 0 1.438-.23 1.66.49.156.513.124 1.78-.185 2.09-.462.464-2.493.246-3.502.246H13.15c-.805 0-3.09.166-3.44-.247-.186-.217-.092-1.39-.097-2.018 0-.09.005-.236.095-.346.085-.106.155-.15.277-.178.23-.054.785-.03 1.197-.038.377-.01.793.027 1.168-.123l.247-.123c.148-.213.108-1.313.123-1.905.096-4.084 0-7.93 0-12.166 0-.632.082-1.667-.123-1.904-.382-.44-2.312.075-2.765-.372-.196-.188-.19-.58-.185-1.103.002-.327-.057-.68.062-.922l.055-.106.067-.08c.335-.38 2.082-.246 3.07-.246H22.98c.233-.012.998-.064 1.155.145l.135.224c.193.554.188 1.967-.246 2.212-.272.152-.825.054-1.29.06-.422.007-.985-.062-1.228.122-.405.308-.247 2.13-.247 3.38 0 3.627-.072 7.294.06 10.63.026.624-.12 1.708.124 2.03.217.286.716.246 1.228.246zM18.37 30.952c-.276-.28-1.982-.143-2.302-.133-.162 0-.34.02-.403.077-.075.07-.126.158-.157.325-.03.383-.024.96-.024 1.45v6.268c0 2.464-.01 3.927.06 6.205.03.912-.056 1.698.185 1.906.29.25 2.338.234 2.64-.123.227-.265.187-1.1.187-1.844v-10.2c0-.812.213-3.532-.187-3.93zm14.5 6.82c0-1.17-.12-2.904.458-3.605.305-.37.946-.256 3.29-.268.71-.004 1.67.006 2.478.01.29.002.698-.014.842-.133.27-.22.34-1.566.246-2.272-.092-.69-.22-.697-.984-.738-.775-.042-1.95 0-2.702 0-1.242 0-2.99.222-3.442-.187-.223-.2-.206-.612-.185-1.166.013-.258-.047-.553 0-.738.006-.017.24-.384.31-.43.294-.195 1.106-.122 1.903-.122h12.043c.713 0 1.354-.092 2.03-.062.075.004.41-.073.613.062.453.3.57 2.154.06 2.52-.367.262-1.178.123-1.66.123-1.59 0-2.657-.05-4.36 0-.732.02-.95.01-1.046.676-.083.556-.073 2.016.185 2.274.365.365 2.674.182 3.44.182.543 0 1.156.01 1.78 0l.863-.012c1.105.002 1.048.512 1.048 1.906l.057 12.054c0 .8.013 1.752-.134 1.934-.124.154-.428.214-.78.234h-.01l-.43.008-.118.002c-.563 0-.685-.022-.876-.108-.11-.05-.196-.11-.238-.25-.04-.134-.062-.215-.08-.456-.022-.294-.03-1.694-.037-2.454-.026-3.03.018-5.344-.01-8.57-.004-.437.02-.848-.074-1.2-.107-.413-.544-.458-.926-.463l-.155.003c-.418-.003-.765.022-.928.19-.26.274-.182 2.642-.182 3.265l.05 7.443c0 1.057.043 2.078-.108 2.335-.103.173-.372.185-1.294.18v-.004c-.815 0-.935.015-1.083-.192-.17-.236-.188-.864-.187-1.522.006-3.347.01-6.384-.01-9.89-.005-.605.062-1.33-.07-1.54-.163-.25-1.752-.323-1.943-.017-.143.256-.143.584-.148 3.023-.006 2.976-.033 5.4 0 8.483.008.577.058 1.117-.177 1.428-.21.278-.704.233-1.236.23-.625-.004-.908-.02-1.09-.296-.182-.273-.117-.816-.117-1.557 0-1.65-.018-3.265-.014-4.917.003-1.21-.007-2.226-.007-3.37 0-2.08.03-2.696-.173-3.042-.13-.22-.378-.24-1.425-.213-.403.01-.478.122-.478.443-.002 2.02.002 4.382.002 6.378 0 1.43-.033 3.423 0 5.015.005.37.013.845-.124 1.168-.214.507-1.31.606-2.103.39-.14-.038-.398-.117-.492-.246-.195-.273-.123-1.13-.12-1.904.002-3.51.06-6.388.058-10.017z" class="cls-1"/></svg>